HIERARCHY
ROOT Hips
{
  OFFSET 5.72205e-005 65.662 3.42586
  CHANNELS 6 Xposition Yposition Zposition Zrotation Xrotation Yrotation
  JOINT Chest
  {
    OFFSET 0 8.7983 -4.7612
    CHANNELS 6 Xposition Yposition Zposition Zrotation Xrotation Yrotation
    JOINT Chest2
    {
      OFFSET 0 8.0291 0.4195
      CHANNELS 6 Xposition Yposition Zposition Zrotation Xrotation Yrotation
      JOINT Chest3
      {
        OFFSET 0 9.9351 -2.2114
        CHANNELS 6 Xposition Yposition Zposition Zrotation Xrotation Yrotation
        JOINT Neck
        {
          OFFSET 0 22.3885 -0.4656
          CHANNELS 6 Xposition Yposition Zposition Zrotation Xrotation Yrotation
          JOINT Head
          {
            OFFSET -0.0001 12.643 3.4389
            CHANNELS 6 Xposition Yposition Zposition Zrotation Xrotation Yrotation
            End Site
            {
              OFFSET 0.0001 17.6655 0.5274
            }
          }
        }
        JOINT LeftCollar
        {
          OFFSET 2.2603 21.606 7.4023
          CHANNELS 6 Xposition Yposition Zposition Zrotation Xrotation Yrotation
          JOINT LeftShoulder
          {
            OFFSET 13.5163 -1.1332 -5.0146
            CHANNELS 6 Xposition Yposition Zposition Zrotation Xrotation Yrotation
            JOINT LeftElbow
            {
              OFFSET -0.0995 -28.05 -0.2431
              CHANNELS 6 Xposition Yposition Zposition Zrotation Xrotation Yrotation
              JOINT LeftWrist
              {
                OFFSET 0.0679 -23.3996 -0.1402
                CHANNELS 6 Xposition Yposition Zposition Zrotation Xrotation Yrotation
                JOINT LeftFinger1
                {
                  OFFSET 0.7932 -9.069 2.5189
                  CHANNELS 6 Xposition Yposition Zposition Zrotation Xrotation Yrotation
                  JOINT LeftFinger11
                  {
                    OFFSET -0.8272 -3.3923 0.5977
                    CHANNELS 6 Xposition Yposition Zposition Zrotation Xrotation Yrotation
                    JOINT LeftFinger12
                    {
                      OFFSET -0.5649 -2.3158 0.4082
                      CHANNELS 6 Xposition Yposition Zposition Zrotation Xrotation Yrotation
                      End Site
                      {
                        OFFSET -0.4919 -1.6479 0.2673
                      }
                    }
                  }
                }
                JOINT LeftFinger2
                {
                  OFFSET 0.9159 -9.2044 0.2193
                  CHANNELS 6 Xposition Yposition Zposition Zrotation Xrotation Yrotation
                  JOINT LeftFinger21
                  {
                    OFFSET 0.0117 -4.1944 -0.0248
                    CHANNELS 6 Xposition Yposition Zposition Zrotation Xrotation Yrotation
                    JOINT LeftFinger22
                    {
                      OFFSET 0.0071 -2.3249 -0.0142
                      CHANNELS 6 Xposition Yposition Zposition Zrotation Xrotation Yrotation
                      End Site
                      {
                        OFFSET -0.1475 -2.0882 0.0028
                      }
                    }
                  }
                }
                JOINT LeftFinger3
                {
                  OFFSET 0.6113 -8.7231 -2.0637
                  CHANNELS 6 Xposition Yposition Zposition Zrotation Xrotation Yrotation
                  JOINT LeftFinger31
                  {
                    OFFSET -0.1927 -3.8059 -0.2383
                    CHANNELS 6 Xposition Yposition Zposition Zrotation Xrotation Yrotation
                    JOINT LeftFinger32
                    {
                      OFFSET -0.1091 -2.1688 -0.1362
                      CHANNELS 6 Xposition Yposition Zposition Zrotation Xrotation Yrotation
                      End Site
                      {
                        OFFSET -0.2358 -1.9176 -0.0906
                      }
                    }
                  }
                }
                JOINT LeftFinger4
                {
                  OFFSET -0.6151 -8.0947 -3.5641
                  CHANNELS 6 Xposition Yposition Zposition Zrotation Xrotation Yrotation
                  JOINT LeftFinger41
                  {
                    OFFSET -0.4882 -2.341 -0.6462
                    CHANNELS 6 Xposition Yposition Zposition Zrotation Xrotation Yrotation
                    JOINT LeftFinger42
                    {
                      OFFSET -0.3575 -1.7167 -0.4742
                      CHANNELS 6 Xposition Yposition Zposition Zrotation Xrotation Yrotation
                      End Site
                      {
                        OFFSET -0.4187 -1.5237 -0.3496
                      }
                    }
                  }
                }
                JOINT LeftFinger0
                {
                  OFFSET -1.42 -1.8761 1.4223
                  CHANNELS 6 Xposition Yposition Zposition Zrotation Xrotation Yrotation
                  JOINT LeftFinger01
                  {
                    OFFSET -1.1471 -3.4929 2.6334
                    CHANNELS 6 Xposition Yposition Zposition Zrotation Xrotation Yrotation
                    JOINT LeftFinger02
                    {
                      OFFSET -0.823 -2.3 1.6571
                      CHANNELS 6 Xposition Yposition Zposition Zrotation Xrotation Yrotation
                      End Site
                      {
                        OFFSET -0.5822 -1.6914 1.1582
                      }
                    }
                  }
                }
              }
            }
          }
        }
        JOINT RightCollar
        {
          OFFSET -2.2603 21.606 7.4023
          CHANNELS 6 Xposition Yposition Zposition Zrotation Xrotation Yrotation
          JOINT RightShoulder
          {
            OFFSET -13.5187 -1.1334 -5.0155
            CHANNELS 6 Xposition Yposition Zposition Zrotation Xrotation Yrotation
            JOINT RightElbow
            {
              OFFSET 0.0994 -28.0499 -0.2431
              CHANNELS 6 Xposition Yposition Zposition Zrotation Xrotation Yrotation
              JOINT RightWrist
              {
                OFFSET -0.0679 -23.3996 -0.1402
                CHANNELS 6 Xposition Yposition Zposition Zrotation Xrotation Yrotation
                JOINT RightFinger1
                {
                  OFFSET -0.7932 -9.0691 2.5189
                  CHANNELS 6 Xposition Yposition Zposition Zrotation Xrotation Yrotation
                  JOINT RightFinger11
                  {
                    OFFSET 0.8272 -3.3923 0.5977
                    CHANNELS 6 Xposition Yposition Zposition Zrotation Xrotation Yrotation
                    JOINT RightFinger12
                    {
                      OFFSET 0.565 -2.3158 0.4082
                      CHANNELS 6 Xposition Yposition Zposition Zrotation Xrotation Yrotation
                      End Site
                      {
                        OFFSET 0.4919 -1.6479 0.2673
                      }
                    }
                  }
                }
                JOINT RightFinger2
                {
                  OFFSET -0.916 -9.2044 0.2193
                  CHANNELS 6 Xposition Yposition Zposition Zrotation Xrotation Yrotation
                  JOINT RightFinger21
                  {
                    OFFSET -0.0117 -4.1944 -0.0248
                    CHANNELS 6 Xposition Yposition Zposition Zrotation Xrotation Yrotation
                    JOINT RightFinger22
                    {
                      OFFSET -0.0071 -2.3249 -0.0142
                      CHANNELS 6 Xposition Yposition Zposition Zrotation Xrotation Yrotation
                      End Site
                      {
                        OFFSET 0.1475 -2.0882 0.0028
                      }
                    }
                  }
                }
                JOINT RightFinger3
                {
                  OFFSET -0.6113 -8.7231 -2.0637
                  CHANNELS 6 Xposition Yposition Zposition Zrotation Xrotation Yrotation
                  JOINT RightFinger31
                  {
                    OFFSET 0.1927 -3.8059 -0.2383
                    CHANNELS 6 Xposition Yposition Zposition Zrotation Xrotation Yrotation
                    JOINT RightFinger32
                    {
                      OFFSET 0.1091 -2.1688 -0.1362
                      CHANNELS 6 Xposition Yposition Zposition Zrotation Xrotation Yrotation
                      End Site
                      {
                        OFFSET 0.2358 -1.9176 -0.0906
                      }
                    }
                  }
                }
                JOINT RightFinger4
                {
                  OFFSET 0.6151 -8.0947 -3.564
                  CHANNELS 6 Xposition Yposition Zposition Zrotation Xrotation Yrotation
                  JOINT RightFinger41
                  {
                    OFFSET 0.4882 -2.341 -0.6462
                    CHANNELS 6 Xposition Yposition Zposition Zrotation Xrotation Yrotation
                    JOINT RightFinger42
                    {
                      OFFSET 0.3574 -1.7166 -0.4742
                      CHANNELS 6 Xposition Yposition Zposition Zrotation Xrotation Yrotation
                      End Site
                      {
                        OFFSET 0.4187 -1.5237 -0.3496
                      }
                    }
                  }
                }
                JOINT RightFinger0
                {
                  OFFSET 1.4199 -1.8761 1.4221
                  CHANNELS 6 Xposition Yposition Zposition Zrotation Xrotation Yrotation
                  JOINT RightFinger01
                  {
                    OFFSET 1.1472 -3.4929 2.6336
                    CHANNELS 6 Xposition Yposition Zposition Zrotation Xrotation Yrotation
                    JOINT RightFinger02
                    {
                      OFFSET 0.8229 -2.3 1.6571
                      CHANNELS 6 Xposition Yposition Zposition Zrotation Xrotation Yrotation
                      End Site
                      {
                        OFFSET 0.5822 -1.6914 1.1582
                      }
                    }
                  }
                }
              }
            }
          }
        }
      }
    }
  }
  JOINT RightHip
  {
    OFFSET -9.412 3.9771 -0.7758
    CHANNELS 6 Xposition Yposition Zposition Zrotation Xrotation Yrotation
    JOINT RightKnee
    {
      OFFSET -0.7531 -40.938 0
      CHANNELS 6 Xposition Yposition Zposition Zrotation Xrotation Yrotation
      JOINT RightAnkle
      {
        OFFSET 0 -40.1986 0
        CHANNELS 6 Xposition Yposition Zposition Zrotation Xrotation Yrotation
        JOINT RightToe
        {
          OFFSET 0 -4.4182 9.239
          CHANNELS 6 Xposition Yposition Zposition Zrotation Xrotation Yrotation
          End Site
          {
            OFFSET 0 0 6.1981
          }
        }
      }
    }
  }
  JOINT LeftHip
  {
    OFFSET 9.4119 3.9773 -0.7758
    CHANNELS 6 Xposition Yposition Zposition Zrotation Xrotation Yrotation
    JOINT LeftKnee
    {
      OFFSET 0.7532 -40.9383 0
      CHANNELS 6 Xposition Yposition Zposition Zrotation Xrotation Yrotation
      JOINT LeftAnkle
      {
        OFFSET 0 -40.1986 0
        CHANNELS 6 Xposition Yposition Zposition Zrotation Xrotation Yrotation
        JOINT LeftToe
        {
          OFFSET 0 -4.4182 9.239
          CHANNELS 6 Xposition Yposition Zposition Zrotation Xrotation Yrotation
          End Site
          {
            OFFSET 0 0 6.1981
          }
        }
      }
    }
  }
}
MOTION
Frames:	4
Frame Time:	0.0333333
5.72205e-005 65.662 3.42586 0 0 -0 0 8.7983 -4.7612 0 0 -0 0 8.0291 0.4195 0 0 -0 0 9.9351 -2.2114 0 0 -0 0 22.3885 -0.4656 0 0 -0 -0.0001 12.643 3.4389 0 0 -0 2.2603 21.606 7.4023 0 0 -12.5014 13.5163 -1.1332 -5.0146 88.1196 14.2451 10.6914 -0.0995 -28.05 -0.2431 -0.00160068 -0.00239207 0.000740045 0.0679 -23.3996 -0.1402 -8.4365e-005 7.00714e-005 -9.52055e-007 0.7932 -9.069 2.5189 9.93923e-017 -1.98785e-016 -1.59028e-015 -0.8272 -3.3923 0.5977 9.93923e-017 -5.96354e-016 -1.59028e-015 -0.5649 -2.3158 0.4082 -9.93923e-017 -5.96354e-016 -1.59028e-015 0.9159 -9.2044 0.2193 9.93923e-017 -1.98785e-016 -1.59028e-015 0.0117 -4.1944 -0.0248 -0.0128176 0.00232552 8.52707e-005 0.0071 -2.3249 -0.0142 9.93923e-017 5.96354e-016 -0 0.6113 -8.7231 -2.0637 9.93923e-017 -1.98785e-016 -1.59028e-015 -0.1927 -3.8059 -0.2383 -0.0160551 0.00299681 0.000857156 -0.1091 -2.1688 -0.1362 -2.48481e-016 0 3.18055e-015 -0.6151 -8.0947 -3.5641 9.93923e-017 -1.98785e-016 -1.59028e-015 -0.4882 -2.341 -0.6462 -0.0125865 0.0031206 0.00282719 -0.3575 -1.7167 -0.4742 0 1.98785e-016 -0 -1.42 -1.8761 1.4223 9.93923e-017 -1.98785e-016 -1.59028e-015 -1.1471 -3.4929 2.6334 9.93923e-017 -5.96354e-016 -1.59028e-015 -0.823 -2.3 1.6571 -9.93923e-017 -5.96354e-016 -1.59028e-015 -2.2603 21.606 7.4023 -0.865644 0.16582 7.03859 -13.5187 -1.1334 -5.0155 -88.0329 10.2057 -10.5567 0.0994 -28.0499 -0.2431 0.0015593 -0.00248883 -0.000788628 -0.0679 -23.3996 -0.1402 7.87605e-005 4.10553e-005 1.24965e-005 -0.7932 -9.0691 2.5189 -3.97569e-016 -7.95139e-016 3.18055e-015 0.8272 -3.3923 0.5977 -1.98785e-016 -3.97569e-016 3.18055e-015 0.565 -2.3158 0.4082 -1.98785e-016 0 3.18055e-015 -0.916 -9.2044 0.2193 -3.97569e-016 -7.95139e-016 3.18055e-015 -0.0117 -4.1944 -0.0248 0.0129473 0.00231697 -8.70038e-005 -0.0071 -2.3249 -0.0142 9.93923e-017 -7.95139e-016 1.59028e-015 -0.6113 -8.7231 -2.0637 -3.97569e-016 -7.95139e-016 3.18055e-015 0.1927 -3.8059 -0.2383 0.0163314 0.00303369 -0.000872333 0.1091 -2.1688 -0.1362 3.97569e-016 7.95139e-016 -3.18055e-015 0.6151 -8.0947 -3.564 -3.97569e-016 -7.95139e-016 3.18055e-015 0.4882 -2.341 -0.6462 0.0145763 0.00367772 -0.00326275 0.3574 -1.7166 -0.4742 9.93923e-017 -3.97569e-016 -0 1.4199 -1.8761 1.4221 -3.97569e-016 -7.95139e-016 3.18055e-015 1.1472 -3.4929 2.6336 -1.98785e-016 -3.97569e-016 3.18055e-015 0.8229 -2.3 1.6571 -1.98785e-016 0 3.18055e-015 -9.412 3.9771 -0.7758 3.42482 1.32465 -0.0626183 -0.7531 -40.938 0 0.000117508 0.717283 0.000978199 0 -40.1986 0 -3.4257 -2.04197 -0.0604716 8.88178e-016 -4.4182 9.239 6.47761e-025 0 -0 9.4119 3.9773 -0.7758 -3.42483 1.34017 0.0627307 0.7532 -40.9383 -2.22045e-016 -0.000193936 0.682302 -0.0013703 -8.88179e-016 -40.1986 0 3.42574 -2.02253 0.0595886 -8.88178e-016 -4.4182 9.239 -8.45714e-024 0 -7.40531e-025 
0.422506 24.4492 14.2764 159.862 -64.9387 -0.366259 -8.88178e-016 8.7983 -4.7612 -0.0202951 -10.9382 -0.671859 0 8.0291 0.4195 -0.179182 -21.8756 -1.38684 1.77636e-015 9.9351 -2.2114 -0.179181 -21.8756 -1.38684 8.88178e-016 22.3885 -0.4656 0.0762745 0.211737 0.095008 -0.0001 12.643 3.4389 1.54272e-006 0.167389 1.00556e-006 2.2603 21.606 7.4023 9.55375 42.6858 -10.6929 13.5163 -1.1332 -5.0146 125.197 -31.0019 -2.55994 -0.0995 -28.05 -0.2431 39.2411 -46.6071 27.5712 0.0679 -23.3996 -0.1402 81.0021 37.811 -3.63372 0.7932 -9.069 2.5189 9.37517e-006 2.45962e-006 4.24748e-006 -0.8272 -3.3923 0.5977 4.3038e-006 6.25682e-006 4.96362e-006 -0.5649 -2.3158 0.4082 -3.97569e-016 0 2.75814e-015 0.9159 -9.2044 0.2193 9.37517e-006 2.45962e-006 4.24748e-006 0.0117 -4.1944 -0.0248 -0.0128176 0.00233874 8.12977e-005 0.0071 -2.3249 -0.0142 7.26399e-006 4.40408e-006 2.97845e-006 0.6113 -8.7231 -2.0637 9.37517e-006 2.45962e-006 4.24748e-006 -0.1927 -3.8059 -0.2383 -0.0160575 0.00299903 0.000858855 -0.1091 -2.1688 -0.1362 5.96354e-016 3.18055e-015 1.88845e-015 -0.6151 -8.0947 -3.5641 9.37517e-006 2.45962e-006 4.24748e-006 -0.4882 -2.341 -0.6462 -0.0125675 0.00311411 0.00281954 -0.3575 -1.7167 -0.4742 -2.99318e-031 -1.11319e-014 -1.54058e-015 -1.42 -1.8761 1.4223 9.37517e-006 2.45962e-006 4.24748e-006 -1.1471 -3.4929 2.6334 4.3038e-006 6.25682e-006 4.96362e-006 -0.823 -2.3 1.6571 -3.97569e-016 0 2.75814e-015 -2.2603 21.606 7.4023 41.7998 8.89375 -9.6971 -13.5187 -1.1334 -5.0155 -103.286 -39.2506 17.4609 0.0994 -28.0499 -0.2431 -33.7155 -46.1364 -25.7931 -0.0679 -23.3996 -0.1402 -47.5825 -18.1013 -4.00451 -0.7932 -9.0691 2.5189 5.93792e-006 -1.15621e-006 -4.39922e-006 0.8272 -3.3923 0.5977 1.59028e-015 -5.3501e-016 2.23439e-016 0.565 -2.3158 0.4082 7.58526e-032 -1.35733e-015 3.20191e-015 -0.916 -9.2044 0.2193 5.93792e-006 -1.15621e-006 -4.39922e-006 -0.0117 -4.1944 -0.0248 0.0129314 0.00231478 -8.72377e-005 -0.0071 -2.3249 -0.0142 4.77083e-015 -1.27735e-015 -1.23928e-014 -0.6113 -8.7231 -2.0637 5.93792e-006 -1.15621e-006 -4.39922e-006 0.1927 -3.8059 -0.2383 0.0163295 0.00303701 -0.000872104 0.1091 -2.1688 -0.1362 -6.36111e-015 2.68029e-015 3.11839e-015 0.6151 -8.0947 -3.564 5.93792e-006 -1.15621e-006 -4.39922e-006 0.4882 -2.341 -0.6462 0.0145975 0.0036884 -0.00326813 0.3574 -1.7166 -0.4742 -1.59028e-015 -3.45544e-017 3.48968e-015 1.4199 -1.8761 1.4221 5.93792e-006 -1.15621e-006 -4.39922e-006 1.1472 -3.4929 2.6336 1.59028e-015 -5.3501e-016 2.23439e-016 0.8229 -2.3 1.6571 7.58526e-032 -1.35733e-015 3.20191e-015 -9.412 3.9771 -0.7758 -88.538 -41.0316 -95.4349 -0.7531 -40.938 3.55271e-015 66.3609 81.6718 -64.2867 -3.55271e-015 -40.1986 3.55272e-015 -6.77165 40.0619 10.1874 0 -4.4182 9.239 4.63481e-006 2.60982e-006 -3.84747e-006 9.4119 3.9773 -0.7758 88.2297 -40.495 94.7475 0.7532 -40.9383 0 -65.2807 81.601 62.7593 -7.10543e-015 -40.1986 -7.10543e-015 6.33399 40.0953 -10.3202 7.10543e-015 -4.4182 9.239 2.67338e-006 3.15911e-006 -4.66246e-006 
1.20611 13.9204 14.4112 -174.346 -76.9758 -0.784509 4.44089e-016 8.7983 -4.7612 -0.0518265 -12.2084 -0.785986 -4.44089e-016 8.0291 0.4195 -0.289971 -24.415 -1.6417 4.44089e-016 9.9351 -2.2114 -0.289975 -24.415 -1.6417 1.33227e-015 22.3885 -0.4656 0.0880832 -0.0279526 0.109674 -0.0001 12.643 3.4389 -7.93549e-007 -0.150665 2.14757e-006 2.2603 21.606 7.4023 9.91882 48.8617 -8.8488 13.5163 -1.1332 -5.0146 129.753 -38.7857 -5.32658 -0.0995 -28.05 -0.2431 47.4469 -54.4093 33.1403 0.0679 -23.3996 -0.1402 91.4801 45.65 -2.4637 0.7932 -9.06901 2.5189 5.51738e-032 1.59028e-015 -1.98785e-015 -0.8272 -3.3923 0.5977 6.36111e-015 1.59028e-015 6.95746e-016 -0.5649 -2.3158 0.4082 3.18055e-015 1.59028e-015 5.96354e-016 0.9159 -9.20441 0.2193 5.51738e-032 1.59028e-015 -1.98785e-015 0.0117 -4.1944 -0.0248 -0.0128257 0.00233494 8.05402e-005 0.0071 -2.3249 -0.0142 -4.41391e-032 -3.18055e-015 -7.95139e-016 0.6113 -8.7231 -2.0637 5.51738e-032 1.59028e-015 -1.98785e-015 -0.1927 -3.8059 -0.2383 -0.0160456 0.00299807 0.000862104 -0.1091 -2.1688 -0.1362 3.97569e-015 3.18055e-015 -4.57205e-015 -0.6151 -8.0947 -3.5641 5.51738e-032 1.59028e-015 -1.98785e-015 -0.4882 -2.341 -0.6462 -0.0125841 0.00311319 0.00282695 -0.3575 -1.7167 -0.4742 -7.95139e-016 1.59028e-015 -3.47873e-015 -1.42 -1.8761 1.4223 5.51738e-032 1.59028e-015 -1.98785e-015 -1.1471 -3.4929 2.6334 6.36111e-015 1.59028e-015 6.95746e-016 -0.823 -2.3 1.6571 3.18055e-015 1.59028e-015 5.96354e-016 -2.2603 21.606 7.4023 49.0124 9.66184 -12.5771 -13.5187 -1.1334 -5.0155 -105.649 -47.6456 21.8365 0.0994 -28.0499 -0.2431 -40.4707 -53.9293 -30.4954 -0.0679 -23.3996 -0.1402 -56.1484 -20.1448 -5.03788 -0.7932 -9.06911 2.5189 -3.18055e-015 0 -2.38542e-015 0.8272 -3.3923 0.5977 -1.59028e-015 3.18055e-015 1.59028e-015 0.565 -2.3158 0.4082 -0 0 2.78299e-015 -0.916 -9.20441 0.2193 -3.18055e-015 0 -2.38542e-015 -0.0117 -4.1944 -0.0248 0.012949 0.00232047 -8.91044e-005 -0.0071 -2.3249 -0.0142 -1.59028e-015 3.18055e-015 -1.19271e-015 -0.6113 -8.72311 -2.0637 -3.18055e-015 0 -2.38542e-015 0.1927 -3.8059 -0.2383 0.0163334 0.00304734 -0.000875653 0.1091 -2.1688 -0.1362 -1.59028e-015 6.36111e-015 6.75868e-015 0.6151 -8.0947 -3.564 -3.18055e-015 0 -2.38542e-015 0.4882 -2.341 -0.6462 0.0145738 0.00368606 -0.00326041 0.3574 -1.7166 -0.4742 1.10091e-007 -8.6831e-006 -2.25815e-006 1.4199 -1.8761 1.4221 -3.18055e-015 0 -2.38542e-015 1.1472 -3.4929 2.6336 -1.59028e-015 3.18055e-015 1.59028e-015 0.8229 -2.3 1.6571 -0 0 2.78299e-015 -9.412 3.9771 -0.7758 -103.547 -29.604 -101.779 -0.7531 -40.938 -1.77636e-015 143.157 77.4728 -139.538 -3.55271e-015 -40.1986 0 -10.8848 47.4386 14.9473 0 -4.4182 9.239 -7.49855e-006 2.14858e-006 1.58055e-006 9.4119 3.9773 -0.7758 103.607 -29.8032 102.02 0.7532 -40.9383 0 -143.378 77.4101 139.944 -7.10543e-015 -40.1986 0 11.0046 47.3641 -14.8726 0 -4.4182 9.239 3.60985e-006 -1.00788e-006 3.59332e-007 
0.81355 16.1229 14.3155 179.109 -76.0407 -0.685473 1.11022e-016 8.7983 -4.7612 -0.0565434 -11.1054 -0.756478 0 8.0291 0.4195 -0.273851 -22.209 -1.57005 0 9.9351 -2.2114 -0.273851 -22.209 -1.57005 2.22045e-016 22.3885 -0.4656 0.084128 -0.378957 0.104598 -0.0001 12.643 3.4389 7.86313e-008 -0.588142 -7.13403e-008 2.2603 21.606 7.4023 8.81525 46.0814 -7.5734 13.5163 -1.1332 -5.0146 129.168 -36.8651 -4.17173 -0.0995 -28.05 -0.2431 47.4095 -53.1744 33.3586 0.0679 -23.3996 -0.1402 88.9419 43.621 -2.84399 0.7932 -9.069 2.5189 -3.97569e-016 -3.18055e-015 -2.98177e-016 -0.8272 -3.3923 0.5977 -1.19271e-015 -1.59028e-015 2.68359e-015 -0.5649 -2.3158 0.4082 -7.95139e-016 0 2.68359e-015 0.9159 -9.2044 0.2193 -3.97569e-016 -3.18055e-015 -2.98177e-016 0.0117 -4.1944 -0.0248 -0.0128266 0.00233103 8.80408e-005 0.0071 -2.3249 -0.0142 -1.59028e-015 -3.18055e-015 -1.98785e-015 0.6113 -8.7231 -2.0637 -3.97569e-016 -3.18055e-015 -2.98177e-016 -0.1927 -3.8059 -0.2383 -0.0160492 0.00300438 0.000855696 -0.1091 -2.1688 -0.1362 -7.95139e-016 0 3.37934e-015 -0.6151 -8.0947 -3.5641 -3.97569e-016 -3.18055e-015 -2.98177e-016 -0.4882 -2.341 -0.6462 -0.0126001 0.00311839 0.00282337 -0.3575 -1.7167 -0.4742 -1.98785e-015 0 2.88238e-015 -1.42 -1.8761 1.4223 -3.97569e-016 -3.18055e-015 -2.98177e-016 -1.1471 -3.4929 2.6334 -1.19271e-015 -1.59028e-015 2.68359e-015 -0.823 -2.3 1.6571 -7.95139e-016 0 2.68359e-015 -2.2603 21.606 7.4023 46.8013 8.71328 -11.9442 -13.5187 -1.1334 -5.0155 -105.423 -45.799 20.4056 0.0994 -28.0499 -0.2431 -40.2653 -52.6886 -30.5278 -0.0679 -23.3996 -0.1402 -54.495 -19.0888 -4.5853 -0.7932 -9.0691 2.5189 -2.40556e-006 -5.89927e-006 2.9867e-006 0.8272 -3.3923 0.5977 -2.20076e-006 2.88982e-006 -2.81153e-006 0.565 -2.3158 0.4082 7.95139e-016 -1.59028e-015 1.49089e-015 -0.916 -9.2044 0.2193 -2.40556e-006 -5.89927e-006 2.9867e-006 -0.0117 -4.1944 -0.0248 0.0129459 0.00232626 -0.000101877 -0.0071 -2.3249 -0.0142 -7.95139e-016 -1.59028e-015 4.96962e-015 -0.6113 -8.7231 -2.0637 -2.40556e-006 -5.89927e-006 2.9867e-006 0.1927 -3.8059 -0.2383 0.0163273 0.00302644 -0.000866448 0.1091 -2.1688 -0.1362 7.95139e-016 4.77083e-015 1.68967e-015 0.6151 -8.0947 -3.564 -2.40556e-006 -5.89927e-006 2.9867e-006 0.4882 -2.341 -0.6462 0.0145809 0.00368254 -0.00326314 0.3574 -1.7166 -0.4742 -5.86472e-008 -1.10419e-006 -7.36961e-006 1.4199 -1.8761 1.4221 -2.40556e-006 -5.89927e-006 2.9867e-006 1.1472 -3.4929 2.6336 -2.20076e-006 2.88982e-006 -2.81153e-006 0.8229 -2.3 1.6571 7.95139e-016 -1.59028e-015 1.49089e-015 -9.412 3.9771 -0.7758 -97.7447 -31.8739 -98.6155 -0.7531 -40.938 1.77636e-015 131.45 79.8692 -128.305 -3.55271e-015 -40.1986 0 -11.632 45.1415 15.1328 -3.55271e-015 -4.4182 9.239 -1.132e-005 -1.17896e-006 9.34145e-007 9.4119 3.9773 -0.7758 97.7408 -31.8743 98.602 0.7532 -40.9383 0 -131.442 79.8703 128.286 3.55271e-015 -40.1986 0 11.623 45.1431 -15.1374 3.55271e-015 -4.4182 9.239 1.6067e-005 1.04045e-006 -1.08649e-005 
